<svg class="js-svg svg" xmlns="http://www.w3.org/2000/svg" xmlns:xlink="http://www.w3.org/1999/xlink" width="450" height="450"
  viewBox="-50 -50 450 450" preserveAspectRatio="xMinYMin meet">
  <g class="coordinate">
    <rect x="-50" y="-50" width="450" height="450" fill="#E1F5FE" class="js-coordinate" />
    <line x1="-30" y1="0" x2="400" y2="0" stroke="blue" stroke-width="1" />
    <line x1="0" y1="-30" x2="0" y2="400" stroke="blue" stroke-width="1" />
    <circle cx="0" cy="0" r="4" fill="blue" />
    <g class="y" fill="blue">
      <line x1="0" y1="50" x2="-4" y2="50" stroke="blue" stroke-width="1" />
      <line x1="0" y1="100" x2="-10" y2="100" stroke="blue" stroke-width="1" />
      <text x="-40" y="105">100</text>
      <line x1="0" y1="150" x2="-4" y2="150" stroke="blue" stroke-width="1" />
      <line x1="0" y1="200" x2="-10" y2="200" stroke="blue" stroke-width="1" />
      <text x="-40" y="205">200</text>
      <line x1="0" y1="250" x2="-4" y2="250" stroke="blue" stroke-width="1" />
      <line x1="0" y1="300" x2="-10" y2="300" stroke="blue" stroke-width="1" />
      <text x="-40" y="305">300</text>
      <line x1="0" y1="350" x2="-4" y2="350" stroke="blue" stroke-width="1" />
    </g>
    <g class="x" fill="blue">
      <line x1="50" y1="0" x2="50" y2="-4" stroke="blue" stroke-width="1" />
      <line x1="100" y1="0" x2="100" y2="-10" stroke="blue" stroke-width="1" />
      <text x="88" y="-18">100</text>
      <line x1="150" y1="0" x2="150" y2="-4" stroke="blue" stroke-width="1" />
      <line x1="200" y1="0" x2="200" y2="-10" stroke="blue" stroke-width="1" />
      <text x="188" y="-18">200</text>
      <line x1="250" y1="0" x2="250" y2="-4" stroke="blue" stroke-width="1" />
      <line x1="300" y1="0" x2="300" y2="-10" stroke="blue" stroke-width="1" />
      <text x="288" y="-18">300</text>
      <line x1="350" y1="0" x2="350" y2="-4" stroke="blue" stroke-width="1" />
    </g>
  </g>
  <g>
    <style>
      <![CDATA[
        .svg *{
          font-size: 14px;
          -webkit-touch-callout: none;
          -webkit-user-select: none;
          -khtml-user-select: none;
          -moz-user-select: none;
          -ms-user-select: none;
          user-select: none;
        }
        .path {
          stroke-dasharray: 600;
          stroke-dashoffset: 600;
          animation: dash 1.6s linear infinite;
        }
        @keyframes dash {
            from {
                stroke-dashoffset: 600;
            }
            to {
                stroke-dashoffset: 0;
            }
        }

      ]]>
    </style>

    <g fill="#E91E63">
      <path d="M175 200L225 200" stroke="#aaa"/>
      <!-- <path d="M200 250L200 150" stroke="#E91E63" stroke-dasharray="4"/> -->
      <path class="path js-path" d="M175 200A60 60, 0 0 1 225 200" fill="none" stroke="#E91E63" stroke-width="1"  />
      <path class="js-path" d="M175 200A60 60, 0 1 0 225 200" fill="none" stroke="#E91E63" stroke-width="1" stroke-dasharray="4" />

      <path class="path js-path" d="M175 200A25 25, 0 0 1 225 200" fill="none" stroke="#4CAF50" stroke-width="1"  />
      <path class="js-path" d="M175 200A25 25, 0 1 0 225 200" fill="none" stroke="#4CAF50" stroke-width="1" stroke-dasharray="4" />

      <path class="path js-path" d="M175 200A1 2, 0 0 1 225 200" fill="none" stroke="#FF9800" stroke-width="1"  />
      <path class="js-path" d="M175 200A1 2, 0 1 0 225 200" fill="none" stroke="#FF9800" stroke-width="1" stroke-dasharray="4" />
 
      <text x="30" y="30" fill="#E91E63">rx，ry 大于等于起点至终点的距离 s，则直接</text>
      <text x="30" y="50" fill="#E91E63">使用 rx，ry。如果小于 s， 则按 s 进行换算。</text>
      <circle cx="175" cy="200" r="4" fill="#aaa" />
      <text x="175" y="200" dx="-66" dy="3" fill="#aaa">(175, 200)</text>
      <circle cx="225" cy="200" r="4" fill="#03A9F4"/>
      <text x="225" y="200" dx="10" dy="3" fill="#03A9F4">(300, 200)</text>

    </g>
    <script>
      <![CDATA[
       

      ]]>
    </script>
  </g>
</svg>