<svg class="js-svg svg" xmlns="http://www.w3.org/2000/svg" xmlns:xlink="http://www.w3.org/1999/xlink" width="450" height="450"
  viewBox="-50 -50 450 450" preserveAspectRatio="xMinYMin meet">
  <g class="coordinate">
    <rect x="-50" y="-50" width="450" height="450" fill="#E1F5FE" class="js-coordinate" />
    <line x1="-30" y1="0" x2="400" y2="0" stroke="blue" stroke-width="1" />
    <line x1="0" y1="-30" x2="0" y2="400" stroke="blue" stroke-width="1" />
    <circle cx="0" cy="0" r="4" fill="blue" />
    <g class="y" fill="blue">
      <line x1="0" y1="50" x2="-4" y2="50" stroke="blue" stroke-width="1" />
      <line x1="0" y1="100" x2="-10" y2="100" stroke="blue" stroke-width="1" />
      <text x="-40" y="105">100</text>
      <line x1="0" y1="150" x2="-4" y2="150" stroke="blue" stroke-width="1" />
      <line x1="0" y1="200" x2="-10" y2="200" stroke="blue" stroke-width="1" />
      <text x="-40" y="205">200</text>
      <line x1="0" y1="250" x2="-4" y2="250" stroke="blue" stroke-width="1" />
      <line x1="0" y1="300" x2="-10" y2="300" stroke="blue" stroke-width="1" />
      <text x="-40" y="305">300</text>
      <line x1="0" y1="350" x2="-4" y2="350" stroke="blue" stroke-width="1" />
    </g>
    <g class="x" fill="blue">
      <line x1="50" y1="0" x2="50" y2="-4" stroke="blue" stroke-width="1" />
      <line x1="100" y1="0" x2="100" y2="-10" stroke="blue" stroke-width="1" />
      <text x="88" y="-18">100</text>
      <line x1="150" y1="0" x2="150" y2="-4" stroke="blue" stroke-width="1" />
      <line x1="200" y1="0" x2="200" y2="-10" stroke="blue" stroke-width="1" />
      <text x="188" y="-18">200</text>
      <line x1="250" y1="0" x2="250" y2="-4" stroke="blue" stroke-width="1" />
      <line x1="300" y1="0" x2="300" y2="-10" stroke="blue" stroke-width="1" />
      <text x="288" y="-18">300</text>
      <line x1="350" y1="0" x2="350" y2="-4" stroke="blue" stroke-width="1" />
    </g>
  </g>
  <g>
    <style>
      <![CDATA[
        .svg *{
          -webkit-touch-callout: none;
          -webkit-user-select: none;
          -khtml-user-select: none;
          -moz-user-select: none;
          -ms-user-select: none;
          user-select: none;
        }
       .a text{
          font-size: 12px;
          font-weight: 700;
        }
        .path {
          stroke-dasharray: 600;
          stroke-dashoffset: 600;
          animation: dash 2s linear infinite;
        }

        @keyframes dash {
            from {
                stroke-dashoffset: 600;
            }
            to {
                stroke-dashoffset: 0;
            }
        }
        .btn{
          opacity: 0;
        }
        .a{
          transition: opacity 1s;
        }
        .hide{
          opacity: 0;
        }
        .show{
          opacity: 1;
        }
      ]]>
    </style>

    <g fill="#E91E63">
      <g class="a">
        <path class="js-path path" d="M75 100A40 40, 0 0 0 125 100" fill="none" stroke="#E91E63" stroke-width="1"/>
        <path class="js-path" d="M75 100A40 40, 0 1 0 125 100" fill="none" stroke="#999" stroke-width="1" stroke-dasharray="1" />
        <path class="js-path" d="M75 100A40 40, 0 0 1 125 100" fill="none" stroke="#999" stroke-width="1" stroke-dasharray="1" />
        <path class="js-path" d="M75 100A40 40, 0 1 1 125 100" fill="none" stroke="#999" stroke-width="1" stroke-dasharray="1" />
        <text x="4"  y="12">
          <tspan>arge-arc-flag: 0</tspan>
          <tspan x="4" y="28">sweep-flag: 0</tspan>
        </text>
      </g>
      <g class="a">
        <path class="js-path" d="M275 100A40 40, 0 0 0 325 100" fill="none" stroke="#999" stroke-width="1" stroke-dasharray="1"/>
        <path class="js-path path" d="M275 100A40 40, 0 1 0 325 100" fill="none" stroke="#E91E63" stroke-width="1" />
        <path class="js-path" d="M275 100A40 40, 0 0 1 325 100" fill="none" stroke="#999" stroke-width="1" stroke-dasharray="1" />
        <path class="js-path" d="M275 100A40 40, 0 1 1 325 100" fill="none" stroke="#999" stroke-width="1" stroke-dasharray="1" />
        <text x="194"  y="12">
          <tspan>arge-arc-flag: 1</tspan>
          <tspan x="194" y="28">sweep-flag: 0</tspan>
        </text>
      </g>
      <g class="a">
        <path class="js-path" d="M75 300A40 40, 0 0 0 125 300" fill="none" stroke="#999" stroke-width="1" stroke-dasharray="1"/>
        <path class="js-path" d="M75 300A40 40, 0 1 0 125 300" fill="none" stroke="#999" stroke-width="1" stroke-dasharray="1"/>
        <path class="js-path path" d="M75 300A40 40, 0 0 1 125 300" fill="none" stroke="#E91E63" stroke-width="1" />
        <path class="js-path" d="M75 300A40 40, 0 1 1 125 300" fill="none" stroke="#999" stroke-width="1" stroke-dasharray="1" />
        <text x="4"  y="212">
          <tspan>arge-arc-flag: 0</tspan>
          <tspan x="4" y="228">sweep-flag: 1</tspan>
        </text>
      </g>
      <g class="a">
        <path class="js-path" d="M275 300A40 40, 0 0 0 325 300" fill="none" stroke="#999" stroke-width="1" stroke-dasharray="1"/>
        <path class="js-path" d="M275 300A40 40, 0 1 0 325 300" fill="none" stroke="#999" stroke-width="1" stroke-dasharray="1"/>
        <path class="js-path" d="M275 300A40 40, 0 0 1 325 300" fill="none" stroke="#999" stroke-width="1" stroke-dasharray="1" />
        <path class="js-path path" d="M275 300A40 40, 0 1 1 325 300" fill="none" stroke="#E91E63" stroke-width="1"/>
        <text x="194"  y="212">
          <tspan>arge-arc-flag: 1</tspan>
          <tspan x="194" y="228">sweep-flag: 1</tspan>
        </text>
      </g>

    </g>
    <script>
      <![CDATA[

      ]]>
    </script>
  </g>
</svg>