<svg xmlns="http://www.w3.org/2000/svg" xmlns:xlink="http://www.w3.org/1999/xlink" width="450" height="450"
  viewBox="-50 -50 450 450" preserveAspectRatio="xMinYMin meet">
  <g class="coordinate">
    <rect x="-50" y="-50" width="450" height="450" fill="#E1F5FE" />
    <line x1="-30" y1="0" x2="400" y2="0" stroke="blue" stroke-width="1" />
    <line x1="0" y1="-30" x2="0" y2="400" stroke="blue" stroke-width="1" />
    <circle cx="0" cy="0" r="4" fill="blue" />
    <g class="y" fill="blue">
      <line x1="0" y1="50" x2="-4" y2="50" stroke="blue" stroke-width="1" />
      <line x1="0" y1="100" x2="-10" y2="100" stroke="blue" stroke-width="1" />
      <text x="-40" y="105">100</text>
      <line x1="0" y1="150" x2="-4" y2="150" stroke="blue" stroke-width="1" />
      <line x1="0" y1="200" x2="-10" y2="200" stroke="blue" stroke-width="1" />
      <text x="-40" y="205">200</text>
      <line x1="0" y1="250" x2="-4" y2="250" stroke="blue" stroke-width="1" />
      <line x1="0" y1="300" x2="-10" y2="300" stroke="blue" stroke-width="1" />
      <text x="-40" y="305">300</text>
      <line x1="0" y1="350" x2="-4" y2="350" stroke="blue" stroke-width="1" />
    </g>
    <g class="x" fill="blue">
      <line x1="50" y1="0" x2="50" y2="-4" stroke="blue" stroke-width="1" />
      <line x1="100" y1="0" x2="100" y2="-10" stroke="blue" stroke-width="1" />
      <text x="88" y="-18">100</text>
      <line x1="150" y1="0" x2="150" y2="-4" stroke="blue" stroke-width="1" />
      <line x1="200" y1="0" x2="200" y2="-10" stroke="blue" stroke-width="1" />
      <text x="188" y="-18">200</text>
      <line x1="250" y1="0" x2="250" y2="-4" stroke="blue" stroke-width="1" />
      <line x1="300" y1="0" x2="300" y2="-10" stroke="blue" stroke-width="1" />
      <text x="288" y="-18">300</text>
      <line x1="350" y1="0" x2="350" y2="-4" stroke="blue" stroke-width="1" />
    </g>
  </g>
  <g>
    <style>
      <![CDATA[
        *{
          font-size: 14px;
          }
        .path {
          stroke-dasharray: 4;
          stroke-dashoffset: 4;
          animation: dash 2s linear infinite;
        }
        @keyframes dash {
            from {
                stroke-dashoffset: 100;
            }
            to {
                stroke-dashoffset: 4;
            }
        }
      ]]>
    </style>
    <g fill="#E91E63">
      <path class="path" d="M0 0L100 100" stroke="#E91E63" stroke-width="1" stroke-dasharray="4" id="m" />
      <text style="font-size: 12px" dx="50" dy="-10" >
        <textPath xlink:href="#m"> M100 100 </textPath>
      </text>
      <text x="110" y="105">从（0，0）点移动到（100，100）点</text>
      <circle cx="100" cy="100" r="4" />
    </g>
    <g fill="#03A9F4">
      <path class="path" d="M100 100l0 100" stroke="#03A9F4" stroke-width="1" stroke-dasharray="4" id="mm" />
      <circle cx="100" cy="200" r="4"/>
      <text dx="30" dy="-10">
          <textPath xlink:href="#mm"> m0 100 </textPath>
      </text>
      <text x="110" y="205">相对于（100，100）点移动到（0，100）点</text>
    </g>

  </g>
</svg>