<svg version="1.1" xmlns="http://www.w3.org/2000/svg" xmlns:xlink="http://www.w3.org/1999/xlink" preserveAspectRatio="xMidYMid meet" viewBox="0 0 640 640" width="640" height="640"><defs><path d="M226.07 41.67L109.14 85L89.14 215L209.14 236.67L189.14 280L69.14 236.67L85.41 63.33L209.14 20L226.07 41.67Z" id="b1vxin8UQA"></path><path d="M370.45 63.96L342.11 40L260.8 60L286.67 127.69L402.48 180L326.1 280L219.41 260L241.83 237.58L328.56 262.86L376.36 180L264.25 140L238.63 60L353.94 20L376.36 40L370.45 63.96Z" id="f1qOSW31js"></path><path d="M538.82 63.96L510.49 40L429.18 60L455.05 127.69L570.86 180L494.47 280L387.78 260L410.2 237.58L496.94 262.86L544.74 180L432.63 140L407 60L522.32 20L544.74 40L538.82 63.96Z" id="betj6PuhQ"></path></defs><g><g><g><use xlink:href="#b1vxin8UQA" opacity="1" fill="#0bc482" fill-opacity="1"></use><g><use xlink:href="#b1vxin8UQA" opacity="1" fill-opacity="0" stroke="#000000" stroke-width="0" stroke-opacity="1"></use></g></g><g><use xlink:href="#f1qOSW31js" opacity="1" fill="#0bc482" fill-opacity="1"></use><g><use xlink:href="#f1qOSW31js" opacity="1" fill-opacity="0" stroke="#000000" stroke-width="0" stroke-opacity="1"></use></g></g><g><use xlink:href="#betj6PuhQ" opacity="1" fill="#0bc482" fill-opacity="1"></use><g><use xlink:href="#betj6PuhQ" opacity="1" fill-opacity="0" stroke="#b11c1c" stroke-width="0" stroke-opacity="1"></use></g></g></g></g></svg>