<svg height="512" viewBox="0 0 64 64" width="512" xmlns="http://www.w3.org/2000/svg"><g id="Filled_outline" data-name="Filled outline"><path d="m27 47h10v14h-10z" fill="#ad6327"/><path d="m52 40-14-14h11l-10-10h6l-13-13-13 13h6l-10 10h11l-14 14h9l-7 7h36l-7-7z" fill="#499b58"/><g fill="#8ec13f"><path d="m20.707 41.707-1.414-1.414 4-4a1 1 0 0 1 1.414 0l2.293 2.293 2.293-2.293a1 1 0 0 1 1.414 0l3 3-1.414 1.414-2.293-2.293-2.293 2.293a1 1 0 0 1 -1.414 0l-2.293-2.293z"/><path d="m42.293 40.707-2.293-2.293-2.293 2.293-1.414-1.414 3-3a1 1 0 0 1 1.414 0l3 3z"/><path d="m32 27a1 1 0 0 1 -.707-.293l-3-3 1.414-1.414 2.293 2.293 2.293-2.293a1 1 0 0 1 1.414 0l3 3-1.414 1.414-2.293-2.293-2.293 2.293a1 1 0 0 1 -.707.293z"/><path d="m31 17a1 1 0 0 1 -.707-.293l-2.293-2.293-2.293 2.293-1.414-1.414 3-3a1 1 0 0 1 1.414 0l2.293 2.293 2.293-2.293a1 1 0 0 1 1.414 0l2 2-1.414 1.414-1.293-1.293-2.293 2.293a1 1 0 0 1 -.707.293z"/><path d="m32 34a1 1 0 0 1 -.707-.293l-2.293-2.293-2.293 2.293-1.414-1.414 3-3a1 1 0 0 1 1.414 0l2.293 2.293 2.293-2.293a1 1 0 0 1 1.414 0l3 3-1.414 1.414-2.293-2.293-2.293 2.293a1 1 0 0 1 -.707.293z"/></g><path d="m31 9h2v2h-2z" fill="#55b56a"/><path d="m26 19h2v2h-2z" fill="#55b56a"/><path d="m34 42h2v2h-2z" fill="#55b56a"/><path d="m34 17h2v2h-2z" fill="#55b56a"/><path d="m23 42h2v2h-2z" fill="#55b56a"/><path d="m32 58h-2v-3a1 1 0 0 1 .293-.707l1.707-1.707v-5.586h2v6a1 1 0 0 1 -.293.707l-1.707 1.707z" fill="#66342e"/><path d="m27 50h3v2h-3z" fill="#c67b42"/><path d="m34 56h3v2h-3z" fill="#c67b42"/><path d="m52.924 40.383a1 1 0 0 0 -.217-1.09l-12.293-12.293h8.586a1 1 0 0 0 .707-1.707l-8.293-8.293h3.586a1 1 0 0 0 .707-1.707l-13-13a1 1 0 0 0 -1.414 0l-13 13a1 1 0 0 0 .707 1.707h3.586l-8.293 8.293a1 1 0 0 0 .707 1.707h8.586l-12.293 12.293a1 1 0 0 0 .707 1.707h6.586l-5.293 5.293a1 1 0 0 0 .707 1.707h12v14h12v-14h12a1 1 0 0 0 .707-1.707l-5.293-5.293h6.586a1 1 0 0 0 .924-.617zm-16.924 15.617h-2v2h2v2h-8v-8h2v-2h-2v-2h4v4.586l-1.707 1.707a1 1 0 0 0 -.293.707v3h2v-2.586l1.707-1.707a1 1 0 0 0 .293-.707v-5h2zm7.414-17-2.707-2.707a1 1 0 0 0 -1.414 0l-3 3 1.414 1.414 2.293-2.293 7.586 7.586h-31.172l7.586-7.586 2.293 2.293a1 1 0 0 0 1.414 0l2.293-2.293 2.293 2.293 1.414-1.414-3-3a1 1 0 0 0 -1.414 0l-2.293 2.293-2.293-2.293a1 1 0 0 0 -1.414 0l-2.707 2.707h-6.172l12.293-12.293a1 1 0 0 0 -.707-1.707h-8.586l10.586-10.586 2.293 2.293a1 1 0 0 0 1.414 0l2.293-2.293 1.293 1.293 1.414-1.414-2-2a1 1 0 0 0 -1.414 0l-2.293 2.293-2.293-2.293a1 1 0 0 0 -1.414 0l-2.707 2.707h-3.172l10.586-10.586 10.586 10.586h-3.586a1 1 0 0 0 -.707 1.707l8.293 8.293h-8.172l-2.707-2.707a1 1 0 0 0 -1.414 0l-2.293 2.293-2.293-2.293-1.414 1.414 3 3a1 1 0 0 0 1.414 0l2.293-2.293 14.586 14.586z"/><path d="m34.293 29.293-2.293 2.293-2.293-2.293a1 1 0 0 0 -1.414 0l-3 3 1.414 1.414 2.293-2.293 2.293 2.293a1 1 0 0 0 1.414 0l2.293-2.293 2.293 2.293 1.414-1.414-3-3a1 1 0 0 0 -1.414 0z"/><path d="m31 9h2v2h-2z"/><path d="m26 19h2v2h-2z"/><path d="m34 42h2v2h-2z"/><path d="m34 17h2v2h-2z"/><path d="m23 42h2v2h-2z"/></g></svg>